# xmcd
#
# Track frame offsets:
#	150
#	12057
#	25247
#	37735
#	50497
#	64780
#	76345
#	88237
#	102017
#	110810
#	124010
#	138652
#	149747
#	164540
#	175942
#	187512
#	200680
#	211682
#	226235
#	239207
#	250675
#	263830
#
# Disc length: 3709
#
# Revision: 1
# Processed by: cddbd v1.5.1PL0 Copyright (c) Steve Scherf et al.
# Submitted via: CDex 1.51
# Normalized: r0:TDELIM( - )
#
DISCID=320e7b16
DTITLE=Various Artist - Unerwünschte Musik - 1936-1939
DYEAR=1900
DGENRE=Jazz
TTITLE0=Harry Roy and his Orchestra - Swing for Sale
TTITLE1=Harry Roy and his Orchestra - Your Broadway and my Broadway
TTITLE2=Michael Flome and his Orchestra - Lambeth Walk
TTITLE3=Joe Daniels and his Hot Shots in ''Drumnasticks'' - Big Boy Blue
TTITLE4=Joe Daniels and his Hot Shots in ''Drumnasticks'' - Swing high, swing low
TTITLE5=Fats Waller and his Continental Rhythm - Pent up in a Penthouse
TTITLE6=The Mills Brothers - Caravan
TTITLE7=Russ Morgan and his Orchestra - Dispy Doodle
TTITLE8=Fud Candrix und sein Orchester - Frankie and Johnny
TTITLE9=Fud Candrix und sein Orchester - Two left Feet
TTITLE10=Lecuona Cuban Boys - Conga dans la Nuit
TTITLE11=Teddy Stauffer und seine Original Teddies - Shadrack
TTITLE12=Erwin Steinbacher und sein Orchester - Wenn ich ein Schlangenbeschwörer wär'
TTITLE13=Will Glahé und sein Orchester - Jeder weiß es besser
TTITLE14=Billy Bartholomew mit seinem Tanzorchester - Broadway Launen
TTITLE15=Hans Bund mit seinem Orchester - Ich träume von Millionen
TTITLE16=Die Goldene Sieben - Granada
TTITLE17=Nat Gonella and his Georgians - The Flat Foot Floogie
TTITLE18=Léo Marjane acc. par Wal-Berg et son Orchestre - Bei mir bist du schön
TTITLE19=Bernie Cummins and his Orchestra - Getting some fun ou of Life
TTITLE20=Adi Rosner and his Orchestra - (You have got to) Take your Pick and swing
TTITLE21=Harry Roy and his Orchestra - I've got my Love to keep me warm
EXTD=
EXTT0=
EXTT1=
EXTT2=
EXTT3=
EXTT4=
EXTT5=
EXTT6=
EXTT7=
EXTT8=
EXTT9=
EXTT10=
EXTT11=
EXTT12=
EXTT13=
EXTT14=
EXTT15=
EXTT16=
EXTT17=
EXTT18=
EXTT19=
EXTT20=
EXTT21=
PLAYORDER=
